HIERARCHY
ROOT Hips
{
	OFFSET 0.000000 8.830580 0.000000
	CHANNELS 6 Xposition Yposition Zposition Zrotation Yrotation Xrotation 
	JOINT Spine
	{
		OFFSET 0.000000 0.010000 0.000000
		CHANNELS 3 Zrotation Yrotation Xrotation
		JOINT Spine1
		{
			OFFSET 0.000000 2.459130 0.000000
			CHANNELS 3 Zrotation Yrotation Xrotation
			JOINT Neck
			{
				OFFSET 0.000000 2.484630 0.000000
				CHANNELS 3 Zrotation Yrotation Xrotation
				JOINT Head_virtual
				{
					OFFSET 0.000000 0.000000 0.000000
					CHANNELS 3 Zrotation Yrotation Xrotation
					JOINT Head
					{
						OFFSET 0.000000 0.927525 0.000000
						CHANNELS 3 Zrotation Yrotation Xrotation
						End Site
						{
							OFFSET 0.000000 0.000000 0.000000
						}
					}
				}
				JOINT LeftUpArm_virtual
				{
					OFFSET 0.000000 0.000000 0.000000
					CHANNELS 3 Zrotation Yrotation Xrotation
					JOINT LeftUpArm
					{
						OFFSET 1.248820 0.000000 0.000000
						CHANNELS 3 Zrotation Yrotation Xrotation
						JOINT LeftForeArm
						{
							OFFSET 2.597580 0.000000 0.000000
							CHANNELS 3 Zrotation Yrotation Xrotation
							JOINT LeftHand
							{
								OFFSET 2.455420 0.000000 0.000000
								CHANNELS 3 Zrotation Yrotation Xrotation
								End Site
								{
									OFFSET 0.000000 0.000000 0.000000
								}
							}
						}
					}
				}
				JOINT RightUpArm_virtual
				{
					OFFSET -0.000000 -0.000000 -0.000000
					CHANNELS 3 Zrotation Yrotation Xrotation
					JOINT RightUpArm
					{
						OFFSET -1.248820 -0.000000 -0.000000
						CHANNELS 3 Zrotation Yrotation Xrotation
						JOINT RightForeArm
						{
							OFFSET -2.597580 -0.000000 -0.000000
							CHANNELS 3 Zrotation Yrotation Xrotation
							JOINT RightHand
							{
								OFFSET -2.455420 -0.000000 -0.000000
								CHANNELS 3 Zrotation Yrotation Xrotation
								End Site
								{
									OFFSET 0.000000 0.000000 0.000000
								}
							}
						}
					}
				}
			}
		}
	}
	JOINT LeftUpLeg
	{
		OFFSET 1.271939 0.000000 0.000000
		CHANNELS 3 Zrotation Yrotation Xrotation
		JOINT LeftLowLeg
		{
			OFFSET 0.000000 -4.342910 0.000000
			CHANNELS 3 Zrotation Yrotation Xrotation
			JOINT LeftFoot
			{
				OFFSET 0.000000 -4.487670 0.000000
				CHANNELS 3 Zrotation Yrotation Xrotation
				JOINT LeftToeBase
				{
					OFFSET 0.000000 0.000000 1.515070
					CHANNELS 3 Zrotation Yrotation Xrotation
					End Site
					{
						OFFSET 0.000000 0.000000 0.000000
					}
				}
			}
		}
	}
	JOINT RightUpLeg
	{
		OFFSET -1.271939 0.000000 0.000000
		CHANNELS 3 Zrotation Yrotation Xrotation
		JOINT RightLowLeg
		{
			OFFSET 0.000000 -4.342910 0.000000
			CHANNELS 3 Zrotation Yrotation Xrotation
			JOINT RightFoot
			{
				OFFSET 0.000000 -4.487670 0.000000
				CHANNELS 3 Zrotation Yrotation Xrotation
				JOINT RightToeBase
				{
					OFFSET 0.000000 0.000000 1.515070
					CHANNELS 3 Zrotation Yrotation Xrotation
					End Site
					{
						OFFSET 0.000000 0.000000 0.000000
					}
				}
			}
		}
	}
}
MOTION
Frames: 17
Frame Time: 0.041667
-17.939371 9.120426 44.607086 -174.214643 5.454671 -171.399348 2.642321 0.571086 -9.696466 5.547822 0.701647 -9.804423 0.000000 0.000000 0.000000 -10.460261 0.707208 19.515088 8.209905 12.045021 -90.683324 -24.101299 7.618640 -6.761780 7.615350 -13.312400 -18.575899 0.000000 -7.497510 0.000000 35.133701 7.249490 29.405800 19.166901 -2.410070 -6.572400 -6.529630 6.032900 -51.063099 0.000000 14.337400 0.000000 -33.501598 -12.689100 49.792000 5.972061 -0.477226 -3.234812 0.000000 0.000000 5.515720 -18.711361 11.945775 -3.209372 0.000000 0.000000 -29.561200 4.624342 6.929797 -5.817513 0.000000 0.000000 7.548190 12.149664 -15.887252 4.735058 0.000000 0.000000 -36.215799 
-17.939836 9.120088 44.606929 -174.206419 5.496249 -171.402220 2.634541 0.595318 -9.682338 5.604162 0.730356 -9.866850 0.000000 0.000000 0.000000 -10.821490 1.442415 19.449425 8.102319 12.129892 -90.618230 -24.068600 7.553820 -6.709360 7.626260 -13.217600 -18.459999 0.000000 -7.450210 0.000000 34.646599 7.419620 29.454901 19.114799 -2.450490 -6.680080 -6.301860 5.946310 -51.175800 0.000000 14.271400 0.000000 -33.228401 -12.967500 49.919201 5.971786 -0.474248 -3.241141 0.000000 0.000000 5.556440 -18.728768 11.966056 -3.252141 0.000000 0.000000 -29.527900 4.624946 6.925513 -5.819566 0.000000 0.000000 7.553330 12.128634 -15.848770 4.748501 0.000000 0.000000 -36.247801 
-17.940048 9.119851 44.605730 -174.195301 5.575938 -171.390750 2.629252 0.628970 -9.720222 5.658818 0.764393 -9.874427 0.000000 0.000000 0.000000 -11.151474 2.082083 19.399212 7.975254 12.196883 -90.587298 -24.018299 7.511150 -6.620090 7.652210 -13.111400 -18.415100 0.000000 -7.393250 0.000000 34.350800 7.499600 29.535700 19.109699 -2.465080 -6.685170 -6.187780 5.833110 -51.211300 0.000000 14.254000 0.000000 -32.844398 -13.055600 49.867699 5.967624 -0.408905 -3.232452 0.000000 0.000000 5.573200 -18.728966 11.976177 -3.283545 0.000000 0.000000 -29.519700 4.623079 6.969963 -5.833840 0.000000 0.000000 7.570870 12.143760 -15.806429 4.746881 0.000000 0.000000 -36.250500 
-17.939310 9.119513 44.602721 -174.212102 5.494706 -171.453779 2.587879 0.582294 -9.727717 5.720503 0.727018 -9.873643 0.000000 0.000000 0.000000 -11.357938 2.481658 19.350533 7.858093 12.232453 -90.540398 -23.968500 7.485370 -6.613010 7.703980 -13.071000 -18.370501 0.000000 -7.307310 0.000000 34.256199 7.483810 29.604700 19.084000 -2.476250 -6.633730 -6.104510 5.673450 -51.132000 0.000000 14.264200 0.000000 -32.659901 -13.042100 49.754398 5.965627 -0.495931 -3.179349 0.000000 0.000000 5.588500 -18.737241 11.966027 -3.289045 0.000000 0.000000 -29.555000 4.635925 6.823942 -5.723801 0.000000 0.000000 7.525160 12.139619 -15.755268 4.738197 0.000000 0.000000 -36.253201 
-17.938886 9.119389 44.600939 -174.214816 5.487104 -171.459314 2.552388 0.568506 -9.776066 5.801866 0.721042 -9.881901 0.000000 0.000000 0.000000 -11.574655 2.846002 19.363266 7.819782 12.243748 -90.514825 -23.970301 7.455560 -6.644250 7.817370 -13.002200 -18.431999 0.000000 -7.266020 0.000000 34.199501 7.522830 29.592899 19.065901 -2.465750 -6.581250 -6.109010 5.556650 -50.960201 0.000000 14.246600 0.000000 -32.733101 -12.941800 49.933201 5.965360 -0.496196 -3.167589 0.000000 0.000000 5.594750 -18.727607 11.961294 -3.292566 0.000000 0.000000 -29.547600 4.637048 6.821148 -5.705004 0.000000 0.000000 7.522170 12.101053 -15.765015 4.730110 0.000000 0.000000 -36.258101 
-17.938327 9.119176 44.599288 -174.219930 5.479597 -171.462055 2.522706 0.540433 -9.825352 5.867353 0.700142 -9.895716 0.000000 0.000000 0.000000 -11.779887 3.138387 19.395237 7.831396 12.225947 -90.519260 -23.965300 7.447270 -6.646350 7.964570 -12.901700 -18.672001 0.000000 -7.296560 0.000000 34.090801 7.729880 29.362700 19.054899 -2.424080 -6.525200 -6.149430 5.439130 -50.630901 0.000000 14.269300 0.000000 -32.756802 -12.981600 50.016602 5.963223 -0.473343 -3.156458 0.000000 0.000000 5.594750 -18.723704 11.935797 -3.286939 0.000000 0.000000 -29.535100 4.639016 6.800597 -5.690619 0.000000 0.000000 7.519320 12.092027 -15.759517 4.721563 0.000000 0.000000 -36.275999 
-17.937746 9.118906 44.597497 -174.226567 5.453090 -171.463150 2.513952 0.517523 -9.894358 5.877378 0.678008 -9.874849 0.000000 0.000000 0.000000 -11.927507 3.335669 19.411100 7.811379 12.205997 -90.529444 -23.931999 7.449880 -6.686890 8.107520 -12.864000 -19.004101 0.000000 -7.330800 0.000000 33.908699 8.090670 29.095900 19.061199 -2.425390 -6.503800 -6.177210 5.365440 -50.445301 0.000000 14.339300 0.000000 -32.786098 -13.026000 50.158298 5.963586 -0.500670 -3.145730 0.000000 0.000000 5.586650 -18.729675 11.928682 -3.289203 0.000000 0.000000 -29.546900 4.639630 6.791060 -5.666999 0.000000 0.000000 7.502040 12.101801 -15.767858 4.704608 0.000000 0.000000 -36.284300 
-17.936942 9.118640 44.595711 -174.229450 5.431333 -171.464192 2.506105 0.493559 -9.971723 5.889753 0.653628 -9.839827 0.000000 0.000000 0.000000 -12.016918 3.442426 19.490807 7.814275 12.198916 -90.549487 -23.903601 7.485740 -6.782950 8.229690 -12.866800 -19.311600 0.000000 -7.372700 0.000000 33.706001 8.403500 28.932400 19.065399 -2.426150 -6.535140 -6.220360 5.331240 -50.328400 0.000000 14.364600 0.000000 -32.738201 -12.958900 50.056400 5.968106 -0.504674 -3.136732 0.000000 0.000000 5.584440 -18.722163 11.909986 -3.291328 0.000000 0.000000 -29.539600 4.645023 6.750748 -5.644993 0.000000 0.000000 7.494110 12.102507 -15.733997 4.688754 0.000000 0.000000 -36.237400 
-17.936277 9.118260 44.594010 -174.233463 5.420201 -171.454502 2.495003 0.480111 -10.070757 5.899472 0.639439 -9.786975 0.000000 0.000000 0.000000 -12.064295 3.497015 19.610860 7.819563 12.203430 -90.555980 -23.894300 7.524820 -6.917230 8.339230 -12.888000 -19.558701 0.000000 -7.452270 0.000000 33.558998 8.530250 29.158501 19.075800 -2.398430 -6.555370 -6.291310 5.269630 -50.325500 0.000000 14.402800 0.000000 -32.599300 -12.968500 49.796101 5.971568 -0.541429 -3.133350 0.000000 0.000000 5.576140 -18.749594 11.912898 -3.307103 0.000000 0.000000 -29.541500 4.648367 6.718789 -5.619878 0.000000 0.000000 7.449850 12.085151 -15.717126 4.685039 0.000000 0.000000 -36.263300 
-17.935791 9.117996 44.592957 -174.234387 5.432530 -171.461835 2.495330 0.489629 -10.123274 5.883745 0.648591 -9.779083 0.000000 0.000000 0.000000 -12.092175 3.513405 19.741332 7.834334 12.202047 -90.548978 -23.920099 7.560820 -6.915670 8.516460 -12.897500 -19.713100 0.000000 -7.573880 0.000000 33.437599 8.621290 29.318100 19.069599 -2.398750 -6.561310 -6.312490 5.224050 -50.429699 0.000000 14.498400 0.000000 -32.582199 -12.957100 49.762798 5.972591 -0.537431 -3.117627 0.000000 0.000000 5.579060 -18.753661 11.910488 -3.316784 0.000000 0.000000 -29.550700 4.648505 6.739609 -5.590484 0.000000 0.000000 7.424570 12.077393 -15.722842 4.678833 0.000000 0.000000 -36.264799 
-17.935170 9.117883 44.591450 -174.235407 5.454993 -171.471516 2.497997 0.506877 -10.199203 5.853235 0.662897 -9.737518 0.000000 0.000000 0.000000 -12.095036 3.464316 19.842268 7.828077 12.182284 -90.552174 -23.943100 7.600310 -6.929220 8.676630 -12.912900 -19.660601 0.000000 -7.719000 0.000000 33.417000 8.566220 29.508600 19.083099 -2.428590 -6.606470 -6.355690 5.248570 -50.504101 0.000000 14.536300 0.000000 -32.510799 -12.828400 49.624401 5.971536 -0.524076 -3.091629 0.000000 0.000000 5.577150 -18.780180 11.905196 -3.333786 0.000000 0.000000 -29.539200 4.650673 6.725797 -5.561171 0.000000 0.000000 7.403370 12.071344 -15.690517 4.684323 0.000000 0.000000 -36.268499 
-17.934753 9.117791 44.590829 -174.233232 5.484303 -171.458024 2.505645 0.552922 -10.266284 5.808939 0.707561 -9.739240 0.000000 0.000000 0.000000 -12.053855 3.418811 20.081032 7.850858 12.228354 -90.533267 -23.946800 7.588890 -6.940160 8.776770 -12.874900 -19.580200 0.000000 -7.948390 0.000000 33.394100 8.492940 29.469299 19.103800 -2.480980 -6.646340 -6.412630 5.245660 -50.428101 0.000000 14.637300 0.000000 -32.292999 -12.853000 49.649399 5.971717 -0.493277 -3.095655 0.000000 0.000000 5.582950 -18.779415 11.902950 -3.337950 0.000000 0.000000 -29.526900 4.649341 6.779683 -5.562618 0.000000 0.000000 7.384730 12.062575 -15.719079 4.686955 0.000000 0.000000 -36.252100 
-17.933986 9.117517 44.590222 -174.233907 5.500154 -171.454401 2.507735 0.575604 -10.314626 5.759968 0.729846 -9.729017 0.000000 0.000000 0.000000 -11.995246 3.343594 20.201565 7.837933 12.256746 -90.512778 -23.942801 7.651360 -7.024160 8.830580 -12.935100 -19.398701 0.000000 -8.086120 0.000000 33.442699 8.285220 29.357401 19.129299 -2.492920 -6.663510 -6.445510 5.225490 -50.500000 0.000000 14.686500 0.000000 -32.121700 -12.720200 49.681000 5.972420 -0.473247 -3.093946 0.000000 0.000000 5.588850 -18.776496 11.899926 -3.348849 0.000000 0.000000 -29.535600 4.652472 6.679321 -5.566490 0.000000 0.000000 7.390780 12.055678 -15.603184 4.702258 0.000000 0.000000 -36.326300 
-17.933149 9.117142 44.589776 -174.230301 5.521318 -171.439868 2.504641 0.614184 -10.413305 5.721432 0.766752 -9.683226 0.000000 0.000000 0.000000 -11.967121 3.234747 20.318407 7.931007 12.228493 -90.513296 -23.988100 7.676600 -7.100690 8.945020 -12.934800 -19.030399 0.000000 -8.326990 0.000000 33.435902 8.101700 29.100599 19.120501 -2.494060 -6.663560 -6.458800 5.174460 -50.499500 0.000000 14.775000 0.000000 -32.083099 -12.579300 49.672600 5.976720 -0.451576 -3.109377 0.000000 0.000000 5.608800 -18.797849 11.893201 -3.377076 0.000000 0.000000 -29.512900 4.649586 6.821597 -5.550787 0.000000 0.000000 7.343980 12.094338 -15.693369 4.672128 0.000000 0.000000 -36.289301 
-17.932156 9.116874 44.589075 -174.232185 5.514974 -171.428006 2.482489 0.631570 -10.506045 5.709862 0.784868 -9.600130 0.000000 0.000000 0.000000 -11.943053 3.185438 20.386807 7.985699 12.225827 -90.497767 -24.039600 7.707260 -7.135690 9.011360 -12.911900 -18.864500 0.000000 -8.590360 0.000000 33.312599 8.022140 29.032101 19.119499 -2.524490 -6.658890 -6.469230 5.169100 -50.427898 0.000000 14.842500 0.000000 -32.030899 -12.567300 49.644001 5.981438 -0.450367 -3.119897 0.000000 0.000000 5.613610 -18.579416 11.987547 -3.385818 0.000000 0.000000 -29.340800 4.662689 6.610234 -5.568816 0.000000 0.000000 7.363690 12.032375 -15.520519 4.702441 0.000000 0.000000 -36.300600 
-17.931046 9.116540 44.588256 -174.236052 5.544418 -171.407441 2.459751 0.663488 -10.610320 5.698530 0.816393 -9.498443 0.000000 0.000000 0.000000 -11.888304 3.107543 20.495423 7.957634 12.244184 -90.460286 -24.066799 7.725940 -7.194320 8.976940 -12.856500 -18.747299 0.000000 -8.856160 0.000000 33.196701 8.048150 28.755899 19.125799 -2.546700 -6.603850 -6.460130 5.156000 -50.308201 0.000000 14.898600 0.000000 -32.013599 -12.558500 49.410801 5.978056 -0.399900 -3.124006 0.000000 0.000000 5.605750 -18.594967 11.968671 -3.394681 0.000000 0.000000 -29.321400 4.656640 6.637299 -5.568801 0.000000 0.000000 7.333710 12.027551 -15.511098 4.695271 0.000000 0.000000 -36.286200 
-17.929570 9.116138 44.588505 -174.238504 5.509889 -171.415034 2.427169 0.660318 -10.666116 5.707077 0.818684 -9.445993 0.000000 0.000000 0.000000 -11.831172 2.966028 20.581918 7.948462 12.219983 -90.434841 -24.106899 7.745040 -7.133850 8.900230 -12.802300 -18.877701 0.000000 -9.055800 0.000000 33.220100 7.936400 28.594400 19.127300 -2.559120 -6.563990 -6.390420 5.157990 -50.166000 0.000000 14.952100 0.000000 -32.084900 -12.444300 49.230499 5.989747 -0.428051 -3.138018 0.000000 0.000000 5.629750 -18.622236 11.951874 -3.413176 0.000000 0.000000 -29.332600 4.666748 6.613354 -5.552290 0.000000 0.000000 7.318790 12.058136 -15.505832 4.684978 0.000000 0.000000 -36.341801 
